#!OML:ASF H:\Terrain\Patient Classification 1\Terrain2\Thursday\justin.ASF
:FULLY-SPECIFIED
:DEGREES
1570
root 20.0348 20.9787 -8.07557 717.911 -175.007 -353.303
lowerback 6.17518 -0.973685 3.92656
upperback 3.53529 -1.61546 4.85756
thorax 0.239234 -1.02742 2.90294
lowerneck -11.3757 1.98825 -9.25491
upperneck 40.1672 -1.74103 3.9773
head 16.364 -3.40527 2.6096
rclavicle 1.71949e-014 -9.54166e-015
rhumerus -34.1604 -13.786 -74.0716
rradius 27.2743
rwrist -7.62997
rhand -20.1895 10.9649
rfingers 7.12502
rthumb 6.15685 -18.9257
lclavicle 1.71949e-014 -9.54166e-015
lhumerus -35.0704 6.91635 84.1742
lradius 21.9862
lwrist -8.3286
lhand -11.6142 20.8701
lfingers 7.12502
lthumb 14.4287 50.3485
rfemur -7.02841 -7.66832 30.2806
rtibia 20.463
rfoot -8.19373 1.37621
rtoes 11.922
lfemur -8.46364 0.0315982 -10.0492
ltibia 66.183
lfoot 14.5579 -8.76853
ltoes 9.15674
1571
root 20.0438 20.9862 -8.19485 717.88 -175.084 -353.315
lowerback 6.24438 -0.871658 3.85691
upperback 3.62767 -1.48912 4.8366
thorax 0.294485 -0.966738 2.91313
lowerneck -11.4083 1.98185 -9.07714
upperneck 40.1621 -1.68667 3.75827
head 16.3628 -3.37528 2.49102
rclavicle 1.0138e-014 -6.91771e-014
rhumerus -33.7032 -12.8005 -74.5549
rradius 28.3312
rwrist -8.52594
rhand -20.1354 10.2138
rfingers 7.12502
rthumb 6.20914 -19.6752
lclavicle 1.0138e-014 -6.91771e-014
lhumerus -35.5583 7.6384 83.9652
lradius 22.0589
lwrist -9.03633
lhand -11.6401 20.6704
lfingers 7.12502
lthumb 14.4038 50.1506
rfemur -6.29155 -7.68386 30.295
rtibia 19.9379
rfoot -8.19356 1.35388
rtoes 13.4543
lfemur -9.91802 0.425284 -9.96638
ltibia 67.7967
lfoot 12.2465 -8.32217
ltoes 7.50729
1572
root 20.0485 20.9952 -8.31233 717.947 -175.132 -353.449
lowerback 6.19738 -0.810693 3.71529
upperback 3.69872 -1.41937 4.78273
thorax 0.393362 -0.931105 2.92997
lowerneck -11.5466 2.00555 -9.19256
upperneck 40.252 -1.61642 3.79657
head 16.4401 -3.359 2.54183
rclavicle 3.18055e-015 6.75868e-014
rhumerus -33.1021 -11.9361 -74.9372
rradius 29.0169
rwrist -9.26163
rhand -20.1055 9.93316
rfingers 7.12502
rthumb 6.23798 -19.955
lclavicle 3.18055e-015 6.75868e-014
lhumerus -36.0716 7.79571 83.9789
lradius 22.3121
lwrist -8.88084
lhand -11.7449 20.7764
lfingers 7.12502
lthumb 14.3028 50.2638
rfemur -5.72707 -7.85067 30.1503
rtibia 19.5421
rfoot -8.19436 1.48584
rtoes 13.7358
lfemur -11.5572 0.844206 -10.0969
ltibia 69.2189
lfoot 10.7034 -7.90823
ltoes 6.65597
1573
root 20.0513 20.9969 -8.42544 717.951 -175.261 -353.236
lowerback 6.26755 -0.745495 3.97891
upperback 3.72309 -1.32923 4.82526
thorax 0.374852 -0.888337 2.82278
lowerneck -11.5282 2.07726 -9.35391
upperneck 40.2196 -1.47031 3.88935
head 16.4044 -3.30367 2.63797
rclavicle -1.15295e-014 7.55382e-014
rhumerus -32.392 -11.3085 -75.1367
rradius 29.3339
rwrist -9.80272
rhand -20.2768 10.1106
rfingers 7.12502
rthumb 6.07262 -19.7823
lclavicle -1.15295e-014 7.55382e-014
lhumerus -36.5455 7.89395 84.0604
lradius 22.5759
lwrist -8.64489
lhand -11.6444 21.457
lfingers 7.12502
lthumb 14.3997 50.9375
rfemur -5.14947 -7.80447 30.3878
rtibia 19.1901
rfoot -8.34385 1.60573
rtoes 12.753
lfemur -13.1909 1.20678 -9.82316
ltibia 70.4847
lfoot 9.83054 -6.96126
ltoes 12.9798
1574
root 20.0568 20.9886 -8.52973 717.951 -175.329 -352.795
lowerback 6.39856 -0.621555 4.4809
upperback 3.74384 -1.15405 4.92279
thorax 0.317062 -0.805194 2.63586
lowerneck -11.5177 2.05853 -9.5107
upperneck 40.1292 -1.45708 4.03503
head 16.3534 -3.2834 2.73691
rclavicle -1.18277e-014 8.42847e-014
rhumerus -31.7083 -11.228 -75.1052
rradius 29.5719
rwrist -9.9989
rhand -20.5777 10.7531
rfingers 7.12502
rthumb 5.7821 -19.148
lclavicle -1.18277e-014 8.42847e-014
lhumerus -36.6409 8.2622 84.007
lradius 22.5213
lwrist -8.83832
lhand -11.2731 21.7338
lfingers 7.12502
lthumb 14.7574 51.1885
rfemur -4.5846 -7.63195 30.9134
rtibia 18.7724
rfoot -8.38946 1.54516
rtoes 12.5629
lfemur -14.9079 1.55312 -9.30174
ltibia 71.7004
lfoot 8.74704 -6.39784
ltoes 17.5941
1575
root 20.0565 20.9833 -8.63702 717.984 -175.391 -352.578
lowerback 6.42604 -0.393508 4.87698
upperback 3.84604 -0.851131 4.92876
thorax 0.401948 -0.653534 2.40192
lowerneck -11.8441 1.92208 -9.59463
upperneck 40.2305 -1.57698 4.08085
head 16.5053 -3.32208 2.75968
rclavicle 1.97791e-014 1.35174e-014
rhumerus -31.1099 -11.4098 -74.9876
rradius 30.0662
rwrist -10.3065
rhand -20.7775 10.8175
rfingers 7.12502
rthumb 5.58917 -19.0888
lclavicle 1.97791e-014 1.35174e-014
lhumerus -36.5602 8.25327 84.0968
lradius 22.4665
lwrist -8.68466
lhand -11.0011 21.5412
lfingers 7.12502
lthumb 15.0194 50.9765
rfemur -4.03584 -7.51778 31.162
rtibia 18.4268
rfoot -8.71661 1.48316
rtoes 11.8567
lfemur -16.6218 2.05167 -9.18228
ltibia 72.7816
lfoot 7.25843 -7.22262
ltoes 9.80818
1576
root 20.0546 20.985 -8.75112 717.878 -175.639 -352.438
lowerback 6.55868 -0.12846 5.21368
upperback 3.98156 -0.491935 4.85821
thorax 0.466508 -0.471919 2.12
lowerneck -12.0949 1.79768 -9.42629
upperneck 40.3783 -1.71363 3.91224
head 16.6634 -3.36931 2.63507
rclavicle -3.47873e-015 3.97569e-015
rhumerus -30.6069 -11.4359 -75.025
rradius 30.7124
rwrist -10.8521
rhand -20.8602 10.6603
rfingers 7.12502
rthumb 5.50931 -19.2481
lclavicle -3.47873e-015 3.97569e-015
lhumerus -36.6323 7.60628 84.3207
lradius 22.5947
lwrist -7.79564
lhand -11.0011 21.6169
lfingers 7.12502
lthumb 15.0194 51.0521
rfemur -3.40439 -7.15433 31.3048
rtibia 18.3087
rfoot -8.99592 1.32238
rtoes 12.2206
lfemur -18.0041 2.55366 -9.1298
ltibia 73.6409
lfoot 5.88948 -8.04603
ltoes 4.24971
